#N canvas 671 127 320 398 12;
#X obj 24 15 loadbang;
#X obj 33 159 bng 15 250 50 0 empty empty empty 17 7 0 10 #fcfcfc #000000 #000000;
#X floatatom 33 246 5 0 0 0 - - - 0;
#X obj 66 182 metro 100;
#X obj 66 159 bng 15 250 50 0 empty empty empty 17 7 0 10 #fcfcfc #000000 #000000;
#X floatatom 33 325 5 0 0 0 - - - 0;
#X obj 24 92 modbus 3 0;
#X obj 33 210 modbus 3 4;
#X obj 33 284 modbus 3 5;
#X msg 24 50 open /dev/ttyUSB0;
#X connect 0 0 9 0;
#X connect 1 0 7 0;
#X connect 3 0 7 0;
#X connect 3 0 8 0;
#X connect 4 0 3 0;
#X connect 7 0 2 0;
#X connect 8 0 5 0;
#X connect 9 0 6 0;
