#N canvas 651 77 450 300 12;
#X msg 16 23 connect 192.168.100.2 3000;
#X floatatom 16 125 5 0 0 0 - - - 0;
#X obj 16 90 netsend -u -b;
#X msg 105 54 send 1;
#X msg 35 54 send 0;
#X connect 0 0 2 0;
#X connect 2 0 1 0;
#X connect 3 0 2 0;
#X connect 4 0 2 0;
