#N canvas 507 117 703 481 10;
#X msg 65 224 open /dev/ttyUSB0;
#X msg 18 224 0;
#X floatatom 19 416 5 0 0 0 - - -, f 5;
#X obj 65 256 modbus 1 0 122;
#X obj 18 196 bng 15 250 50 0 empty empty empty 17 7 0 10 -262144 -1
-1;
#X msg 31 139 stop;
#X obj 18 85 bng 15 250 50 0 empty empty empty 17 7 0 10 -262144 -1
-1;
#X obj 65 22 loadbang;
#X obj 19 385 roboteq_temp;
#X msg 19 308 read cpu;
#X msg 35 334 read heatsink_1;
#X msg 48 358 read heatsink_2;
#X obj 605 12 bng 15 250 50 0 empty empty empty 17 7 0 10 -262144 -1
-1;
#X msg 661 11 1;
#X msg 629 10 0;
#X obj 623 66 modbus 3 0;
#X floatatom 623 95 5 0 0 0 - - -, f 5;
#X obj 183 307 bng 15 250 50 0 empty empty empty 17 7 0 10 -262144
-1 -1;
#X floatatom 183 347 5 0 0 0 - - -, f 5;
#X obj 183 325 roboteq_modbus 8736;
#X obj 183 372 bng 15 250 50 0 empty empty empty 17 7 0 10 -262144
-1 -1;
#X floatatom 183 415 5 0 0 0 - - -, f 5;
#X obj 183 391 roboteq_modbus 8768;
#X obj 281 230 roboteq_drive;
#X obj 356 80 vsl 15 128 -1000 1000 0 0 empty empty empty 0 -9 0 10
-262144 -1 -1 6350 1;
#X msg 281 51 0;
#X obj 281 83 vsl 15 128 -1000 1000 0 0 empty empty empty 0 -9 0 10
-262144 -1 -1 6350 1;
#X msg 356 50 0;
#X text 227 348 Status;
#X text 227 416 Fault;
#X obj 34 57 delay 1000;
#X obj 31 114 delay 1000;
#X obj 18 164 metro 100;
#X connect 0 0 3 0;
#X connect 1 0 3 0;
#X connect 4 0 1 0;
#X connect 5 0 32 0;
#X connect 6 0 31 0;
#X connect 6 0 32 0;
#X connect 7 0 0 0;
#X connect 7 0 25 0;
#X connect 7 0 27 0;
#X connect 7 0 30 0;
#X connect 8 0 2 0;
#X connect 9 0 8 0;
#X connect 10 0 8 0;
#X connect 11 0 8 0;
#X connect 12 0 15 0;
#X connect 13 0 15 0;
#X connect 14 0 15 0;
#X connect 15 0 16 0;
#X connect 17 0 19 0;
#X connect 19 0 18 0;
#X connect 20 0 22 0;
#X connect 22 0 21 0;
#X connect 24 0 23 1;
#X connect 25 0 26 0;
#X connect 26 0 23 0;
#X connect 27 0 24 0;
#X connect 30 0 6 0;
#X connect 31 0 5 0;
#X connect 32 0 4 0;
