#N canvas 815 193 358 268 10;
#X obj 9 8 inlet;
#X obj 9 34 route read;
#X obj 9 59 route cpu heatsink_1 heatsink_2;
#X obj 9 205 outlet;
#X obj 9 111 roboteq_modbus 8673;
#X obj 131 165 roboteq_modbus 8674;
#X obj 70 139 roboteq_modbus 8675;
#X obj 9 86 bng 15 250 50 0 empty empty empty 17 7 0 10 -262144 -1
-1;
#X obj 70 87 bng 15 250 50 0 empty empty empty 17 7 0 10 -262144 -1
-1;
#X obj 131 87 bng 15 250 50 0 empty empty empty 17 7 0 10 -262144 -1
-1;
#X connect 0 0 1 0;
#X connect 1 0 2 0;
#X connect 2 0 7 0;
#X connect 2 1 8 0;
#X connect 2 2 9 0;
#X connect 4 0 3 0;
#X connect 5 0 3 0;
#X connect 6 0 3 0;
#X connect 7 0 4 0;
#X connect 8 0 6 0;
#X connect 9 0 5 0;
