#N canvas 267 63 320 398 12;
#X obj 24 15 loadbang;
#X obj 33 159 bng 15 250 50 0 empty empty empty 17 7 0 10 #fcfcfc #000000 #000000;
#X floatatom 33 246 5 0 0 0 - - - 0;
#X obj 66 182 metro 100;
#X obj 66 159 bng 15 250 50 0 empty empty empty 17 7 0 10 #fcfcfc #000000 #000000;
#X floatatom 33 325 5 0 0 0 - - - 0;
#X obj 33 210 modbus 3 4;
#X obj 33 284 modbus 3 5;
#X msg 25 49 open /dev/ttyACM3;
#X obj 24 92 modbus 5 0;
#X floatatom 197 177 5 0 0 0 - - - 0;
#X obj 194 90 bng 20 250 50 0 empty empty empty 0 -10 0 12 #fcfcfc #000000 #000000;
#X obj 198 135 modbus 5 0;
#X msg 250 79 0;
#X msg 246 102 1;
#X connect 0 0 8 0;
#X connect 1 0 6 0;
#X connect 3 0 6 0;
#X connect 3 0 7 0;
#X connect 4 0 3 0;
#X connect 6 0 2 0;
#X connect 7 0 5 0;
#X connect 8 0 9 0;
#X connect 11 0 12 0;
#X connect 12 0 10 0;
#X connect 13 0 12 0;
#X connect 14 0 12 0;
