#N canvas 671 127 432 552 12;
#X obj 24 116 modbus 4 0;
#X msg 24 50 open /dev/ttyACM0;
#X msg 42 80 0;
#X msg 77 81 1;
#X obj 118 81 netreceive -u -b 3000;
#X obj 24 15 loadbang;
#X obj 33 159 bng 15 250 50 0 empty empty empty 17 7 0 10 -262144 -1
-1;
#X floatatom 33 246 5 0 0 0 - - -, f 5;
#X obj 121 180 metro 100;
#X obj 121 158 bng 15 250 50 0 empty empty empty 17 7 0 10 -262144
-1 -1;
#X obj 121 244 array set channels;
#N canvas 0 50 450 250 (subpatch) 0;
#X array channels 7 float 2;
#X coords 0 0 7 2000 200 140 1 0 0;
#X restore 155 375 graph;
#X floatatom 33 325 5 0 0 0 - - -, f 5;
#X obj 33 210 modbus 4 2;
#X obj 33 284 modbus 4 4;
#X obj 121 208 modbus 4 1 7;
#X connect 1 0 0 0;
#X connect 2 0 0 0;
#X connect 3 0 0 0;
#X connect 4 0 0 0;
#X connect 5 0 1 0;
#X connect 6 0 13 0;
#X connect 8 0 13 0;
#X connect 8 0 14 0;
#X connect 8 0 15 0;
#X connect 9 0 8 0;
#X connect 13 0 7 0;
#X connect 14 0 12 0;
#X connect 15 0 10 0;
